<svg width="113" height="89" viewBox="0 0 113 89" fill="none" xmlns="http://www.w3.org/2000/svg">
<g clip-path="url(#clip0_219_208)">
<path d="M91.1258 27.8636C91.2496 32.5766 90.2671 37.0616 88.4144 41.0698C94.3838 43.9121 98.5003 49.9242 98.5003 56.8813C98.5003 66.5788 90.5023 74.4401 80.6363 74.4401H56.4026C55.3061 76.6044 53.9242 78.6683 52.2535 80.5784C49.5301 83.692 46.2995 86.0993 42.793 87.7848H80.6363C98.0005 87.7848 112.077 73.9488 112.077 56.8813C112.077 43.4278 103.331 31.9823 91.1222 27.7383L91.1258 27.8636Z" fill="#02E3F0"/>
<path d="M73.6593 23.3453C76.7005 23.7962 79.9088 22.8511 82.2498 20.5101C83.7078 19.0522 84.6243 17.2578 84.9994 15.377C87.1164 19.3561 88.3235 23.8943 88.3419 28.7148C88.4022 44.5484 75.6155 57.4329 59.7819 57.4932C51.793 57.5236 44.5548 54.2834 39.3359 49.0315L48.9894 39.378C51.7254 42.1472 55.5296 43.8572 59.7299 43.8412C68.0237 43.8096 74.7215 37.0606 74.6899 28.7668C74.6826 26.8538 74.3179 25.0256 73.6593 23.3453Z" fill="url(#paint0_radial_219_208)"/>
<path d="M9.08594 80.5605C9.10187 80.5751 9.11783 80.5898 9.1338 80.6044C9.14984 80.619 9.16589 80.6337 9.18195 80.6483L9.08594 80.5605Z" fill="url(#paint1_radial_219_208)"/>
<path d="M48.0726 38.5155C48.0567 38.5009 48.0407 38.4863 48.0248 38.4717C48.0087 38.457 47.9927 38.4423 47.9766 38.4277L48.0726 38.5155Z" fill="url(#paint2_radial_219_208)"/>
<path d="M50.012 78.7656L49.6289 79.1842C49.6933 79.1151 49.7575 79.0457 49.8214 78.9758C49.8854 78.906 49.9489 78.8359 50.012 78.7656Z" fill="url(#paint3_radial_219_208)"/>
<path d="M18.4634 70.6387C12.4098 65.0316 12.0125 55.5803 17.5908 49.4845C23.1653 43.3928 32.6056 42.9486 38.7268 48.4704L47.9433 38.3988C36.2597 27.7869 18.1839 28.614 7.51928 40.268C-3.14914 51.9263 -2.36907 70.013 9.2469 80.7103L18.4634 70.6387Z" fill="url(#paint4_radial_219_208)"/>
<path d="M38.6908 48.438C44.7445 54.0451 45.1418 63.4964 39.5635 69.5922C33.9889 75.6839 24.5486 76.1281 18.4275 70.6063L9.21094 80.6779C20.8946 91.2898 38.9704 90.4628 49.635 78.8087C60.3034 67.1505 59.5233 49.0637 47.9074 38.3664L38.6908 48.438Z" fill="url(#paint5_radial_219_208)"/>
<path d="M31.2263 24.0465C29.6737 33.5385 32.9743 42.7032 39.307 49.0085L48.9612 39.3543C45.625 36.0503 43.8838 31.2362 44.6994 26.2501C46.0381 18.0648 53.7581 12.5147 61.9434 13.8534C65.2032 14.3864 68.0447 15.9315 70.2 18.1155C70.2367 18.1543 70.2764 18.1899 70.3141 18.2276C72.9798 20.8933 77.302 20.8933 79.9677 18.2276C82.5487 15.6466 82.6306 11.5134 80.2141 8.83362L80.281 8.90046C80.2385 8.8559 80.1963 8.81168 80.1535 8.76745C80.0931 8.70232 80.0311 8.63753 79.9677 8.57411C79.9454 8.55183 79.9224 8.52954 79.9001 8.50726C75.7868 4.34315 70.3652 1.39739 64.147 0.38027C48.5207 -2.17537 33.7816 8.42053 31.2263 24.0465Z" fill="url(#paint6_radial_219_208)"/>
<path d="M79.3594 49.3725C79.6631 49.0818 79.9604 48.7846 80.2514 48.4805L79.3594 49.3725Z" fill="url(#paint7_radial_219_208)"/>
</g>
<defs>
<radialGradient id="paint0_radial_219_208" cx="0" cy="0" r="1" gradientUnits="userSpaceOnUse" gradientTransform="translate(93 25.5) rotate(147.885) scale(55.491 47.7004)">
<stop stop-color="#00C2FF"/>
<stop offset="1" stop-color="#071E59"/>
</radialGradient>
<radialGradient id="paint1_radial_219_208" cx="0" cy="0" r="1" gradientUnits="userSpaceOnUse" gradientTransform="translate(47.6351 37.2037) rotate(-38.6641) scale(60.4011 59.4666)">
<stop stop-color="#00C2FF"/>
<stop offset="0.486827" stop-color="#01ACE9"/>
<stop offset="1" stop-color="#071E59"/>
</radialGradient>
<radialGradient id="paint2_radial_219_208" cx="0" cy="0" r="1" gradientUnits="userSpaceOnUse" gradientTransform="translate(36.2592 51.4815) rotate(-43.0552) scale(35.5578 37.8666)">
<stop stop-color="#00C2FF"/>
<stop offset="0.413758" stop-color="#00C2FF"/>
<stop offset="1" stop-color="#071E59"/>
</radialGradient>
<radialGradient id="paint3_radial_219_208" cx="0" cy="0" r="1" gradientUnits="userSpaceOnUse" gradientTransform="translate(36.2604 51.4809) rotate(-43.0559) scale(35.5578 37.8667)">
<stop stop-color="#00C2FF"/>
<stop offset="0.413758" stop-color="#00C2FF"/>
<stop offset="1" stop-color="#071E59"/>
</radialGradient>
<radialGradient id="paint4_radial_219_208" cx="0" cy="0" r="1" gradientUnits="userSpaceOnUse" gradientTransform="translate(11.5 81) rotate(-67.5206) scale(47.0771 43.9904)">
<stop stop-color="#03AEEA"/>
<stop offset="0.413758" stop-color="#00C2FF"/>
<stop offset="1" stop-color="#071E59"/>
</radialGradient>
<radialGradient id="paint5_radial_219_208" cx="0" cy="0" r="1" gradientUnits="userSpaceOnUse" gradientTransform="translate(39.2417 62.2227) rotate(-108.429) scale(84.0064 73.4315)">
<stop stop-color="#1FC9FF"/>
<stop offset="0.486827" stop-color="#01ACE9"/>
<stop offset="1" stop-color="#071E59"/>
</radialGradient>
<radialGradient id="paint6_radial_219_208" cx="0" cy="0" r="1" gradientUnits="userSpaceOnUse" gradientTransform="translate(44 46) rotate(-68.2677) scale(76.9708 73.1175)">
<stop offset="0.0185385" stop-color="#00C2FF"/>
<stop offset="0.583814" stop-color="#063C77"/>
</radialGradient>
<radialGradient id="paint7_radial_219_208" cx="0" cy="0" r="1" gradientUnits="userSpaceOnUse" gradientTransform="translate(59.4334 28.5907) rotate(131.523) scale(30.1014 30.3732)">
<stop offset="0.0185385" stop-color="#00C2FF"/>
<stop offset="0.583814" stop-color="#071E59"/>
</radialGradient>
<clipPath id="clip0_219_208">
<rect width="113" height="89" fill="white"/>
</clipPath>
</defs>
</svg>
