<?xml version="1.0" encoding="UTF-8"?>
<svg id="a" data-name="Layer 1" xmlns="http://www.w3.org/2000/svg" width="3558.78" height="699.81" xmlns:xlink="http://www.w3.org/1999/xlink" viewBox="0 0 3558.78 699.81">
  <defs>
    <linearGradient id="c" x1="-5401.47" y1="-404.06" x2="-5077.45" y2="-728.08" gradientTransform="translate(5417.06 -131.78) scale(1 -1)" gradientUnits="userSpaceOnUse">
      <stop offset="0" stop-color="#53b7f9"/>
      <stop offset=".14" stop-color="#50b2f8"/>
      <stop offset=".31" stop-color="#49a3f5"/>
      <stop offset=".49" stop-color="#3e8bf2"/>
      <stop offset=".49" stop-color="#3e8bf2"/>
      <stop offset=".6" stop-color="#3a82f0"/>
      <stop offset=".76" stop-color="#326cec"/>
      <stop offset=".96" stop-color="#2348e5"/>
      <stop offset=".99" stop-color="#2142e4"/>
    </linearGradient>
    <linearGradient id="d" x1="8601.31" y1="-404.06" x2="8925.33" y2="-728.08" gradientTransform="translate(9160.58 -131.78) rotate(-180)" gradientUnits="userSpaceOnUse">
      <stop offset="0" stop-color="#53b7f9"/>
      <stop offset=".14" stop-color="#50b2f8"/>
      <stop offset=".31" stop-color="#49a3f5"/>
      <stop offset=".49" stop-color="#3e8bf2"/>
      <stop offset=".49" stop-color="#3e8bf2"/>
      <stop offset=".6" stop-color="#3a82f0"/>
      <stop offset=".76" stop-color="#326cec"/>
      <stop offset=".96" stop-color="#2348e5"/>
      <stop offset=".99" stop-color="#2142e4"/>
    </linearGradient>
    <linearGradient id="e" x1="137.17" y1="-346.59" x2="78.42" y2="-448.36" gradientTransform="translate(0 -131.78) scale(1 -1)" gradientUnits="userSpaceOnUse">
      <stop offset="0" stop-color="#fff" stop-opacity="0"/>
      <stop offset=".12" stop-color="#c8d4e1" stop-opacity=".32"/>
      <stop offset=".25" stop-color="#95adc6" stop-opacity=".61"/>
      <stop offset=".37" stop-color="#7090b3" stop-opacity=".82"/>
      <stop offset=".46" stop-color="#5a7fa7" stop-opacity=".95"/>
      <stop offset=".52" stop-color="#5279a3"/>
    </linearGradient>
    <linearGradient id="f" x1="250.45" y1="-498.67" x2="220.64" y2="-550.32" gradientTransform="translate(0 -131.78) scale(1 -1)" gradientUnits="userSpaceOnUse">
      <stop offset="0" stop-color="#fff" stop-opacity="0"/>
      <stop offset="0" stop-color="#fbfcfd" stop-opacity=".02"/>
      <stop offset=".08" stop-color="#ced9e5" stop-opacity=".28"/>
      <stop offset=".17" stop-color="#a8bbd0" stop-opacity=".5"/>
      <stop offset=".25" stop-color="#88a3c0" stop-opacity=".68"/>
      <stop offset=".35" stop-color="#7090b3" stop-opacity=".82"/>
      <stop offset=".44" stop-color="#5f83aa" stop-opacity=".92"/>
      <stop offset=".55" stop-color="#557ba4" stop-opacity=".98"/>
      <stop offset=".7" stop-color="#5279a3"/>
    </linearGradient>
    <linearGradient id="g" x1="14072.85" y1="-348.48" x2="14118.35" y2="-427.27" gradientTransform="translate(14577.64 -131.78) rotate(-180)" gradientUnits="userSpaceOnUse">
      <stop offset="0" stop-color="#fff" stop-opacity="0"/>
      <stop offset=".15" stop-color="#c8d4e1" stop-opacity=".32"/>
      <stop offset=".3" stop-color="#95adc6" stop-opacity=".61"/>
      <stop offset=".44" stop-color="#7090b3" stop-opacity=".82"/>
      <stop offset=".55" stop-color="#5a7fa7" stop-opacity=".95"/>
      <stop offset=".63" stop-color="#5279a3"/>
    </linearGradient>
    <linearGradient id="h" x1="14219.7" y1="-479.89" x2="14250.99" y2="-534.09" gradientTransform="translate(14577.64 -131.78) rotate(-180)" gradientUnits="userSpaceOnUse">
      <stop offset="0" stop-color="#fff" stop-opacity="0"/>
      <stop offset=".02" stop-color="#f5f7fa" stop-opacity=".05"/>
      <stop offset=".16" stop-color="#c4d1df" stop-opacity=".34"/>
      <stop offset=".29" stop-color="#9bb1c9" stop-opacity=".58"/>
      <stop offset=".42" stop-color="#7b98b8" stop-opacity=".76"/>
      <stop offset=".55" stop-color="#6487ac" stop-opacity=".89"/>
      <stop offset=".67" stop-color="#567ca5" stop-opacity=".97"/>
      <stop offset=".79" stop-color="#5279a3"/>
    </linearGradient>
    <linearGradient id="j" x1="6538.95" y1="-7876.58" x2="6555.75" y2="-7886.29" gradientTransform="translate(8169.12 -6027.85) rotate(90) scale(1 -1)" gradientUnits="userSpaceOnUse">
      <stop offset="0" stop-color="#fff" stop-opacity="0"/>
      <stop offset=".08" stop-color="#e5ebf1" stop-opacity=".12"/>
      <stop offset=".29" stop-color="#a6bacf" stop-opacity=".41"/>
      <stop offset=".47" stop-color="#7896b7" stop-opacity=".62"/>
      <stop offset=".63" stop-color="#5c80a8" stop-opacity=".75"/>
      <stop offset=".73" stop-color="#5279a3" stop-opacity=".8"/>
    </linearGradient>
    <linearGradient id="k" x1="6406.18" y1="-7876.58" x2="6422.98" y2="-7886.29" gradientTransform="translate(8169.12 -6027.85) rotate(90) scale(1 -1)" gradientUnits="userSpaceOnUse">
      <stop offset="0" stop-color="#fff" stop-opacity="0"/>
      <stop offset=".08" stop-color="#e5ebf1" stop-opacity=".12"/>
      <stop offset=".29" stop-color="#a6bacf" stop-opacity=".41"/>
      <stop offset=".47" stop-color="#7896b7" stop-opacity=".62"/>
      <stop offset=".63" stop-color="#5c80a8" stop-opacity=".75"/>
      <stop offset=".73" stop-color="#5279a3" stop-opacity=".8"/>
    </linearGradient>
    <linearGradient id="l" x1="6575.94" y1="-7876.58" x2="6592.74" y2="-7886.29" gradientTransform="translate(8169.12 -6027.85) rotate(90) scale(1 -1)" gradientUnits="userSpaceOnUse">
      <stop offset="0" stop-color="#fff" stop-opacity="0"/>
      <stop offset=".08" stop-color="#e5ebf1" stop-opacity=".12"/>
      <stop offset=".29" stop-color="#a6bacf" stop-opacity=".41"/>
      <stop offset=".47" stop-color="#7896b7" stop-opacity=".62"/>
      <stop offset=".63" stop-color="#5c80a8" stop-opacity=".75"/>
      <stop offset=".73" stop-color="#5279a3" stop-opacity=".8"/>
    </linearGradient>
    <linearGradient id="m" x1="6614.25" y1="-7876.58" x2="6631.05" y2="-7886.29" gradientTransform="translate(8169.12 -6027.85) rotate(90) scale(1 -1)" gradientUnits="userSpaceOnUse">
      <stop offset="0" stop-color="#fff" stop-opacity="0"/>
      <stop offset=".08" stop-color="#e5ebf1" stop-opacity=".12"/>
      <stop offset=".29" stop-color="#a6bacf" stop-opacity=".41"/>
      <stop offset=".47" stop-color="#7896b7" stop-opacity=".62"/>
      <stop offset=".63" stop-color="#5c80a8" stop-opacity=".75"/>
      <stop offset=".73" stop-color="#5279a3" stop-opacity=".8"/>
    </linearGradient>
    <linearGradient id="n" x1="-228.39" y1="-92.53" x2="4794.07" y2="674.34" gradientUnits="userSpaceOnUse">
      <stop offset="0" stop-color="#53b7f9"/>
      <stop offset=".5" stop-color="#3a82f0"/>
      <stop offset=".99" stop-color="#2142e4"/>
    </linearGradient>
  </defs>
  <g id="b" data-name="Layer 5">
    <path d="M77.69,213.07c2.51-23.43,23.54-41.05,52.25-37.96,28.71,3.09,41.53,24.3,39.01,47.73" fill="none" stroke="#221f20" stroke-miterlimit="10" stroke-width="6.5"/>
    <path d="M497.41,213.81c-2.51-23.43-23.54-41.05-52.25-37.96-28.71,3.09-41.53,24.3-39.01,47.73" fill="none" stroke="#221f20" stroke-miterlimit="10" stroke-width="6.5"/>
    <polygon points="269.49 389.23 285.79 479.54 314.02 386.73 269.49 389.23" fill="#fff"/>
    <path d="M287.62,470.23l-17.92-82.27c-.24-1.1-1.19-1.9-2.32-1.93-9.5-.28-44.45-2.1-47.71-5.16l-49.52-46.6c-4.79-4.51-7.27-10.93-6.75-17.48,1.92-24.08,6.68-78.26,7.95-93.02.11-1.33-.86-2.51-2.19-2.64h0l-91.78-9.36c-1.36-.14-2.56.86-2.69,2.22l-12.5,136.15c-.4,5.99,2.02,11.83,6.53,15.76l109.16,105.11c4.14,3.61,6.52,8.82,6.57,14.31l.9,161.2c0,1.35,1.11,2.44,2.46,2.44l98.53-.38c1.36,0,2.45-1.11,2.44-2.47l-1.11-175.37c0-.17-.02-.34-.06-.51h.02Z" fill="url(#c)"/>
    <path d="M172.16,247.23l-117.68-11.19c-1.37-.13-2.58.88-2.7,2.24l-7.13,81.41c-.09,1.04.93,1.8,1.94,1.49l123.75-39.11c.66-.21,1.12-.8,1.16-1.49l1.99-31.77c.05-.8-.55-1.5-1.35-1.57h0Z" fill="#fff"/>
    <path d="M287.24,470.23l17.92-82.27c.24-1.1,1.19-1.9,2.32-1.93,9.5-.28,44.45-2.1,47.71-5.16l49.52-46.6c4.79-4.51,7.27-10.93,6.75-17.48-1.92-24.08-6.68-78.26-7.95-93.02-.11-1.33.86-2.51,2.19-2.64h0l91.78-9.36c1.36-.14,2.56.86,2.69,2.22l12.5,136.15c.4,5.99-2.02,11.83-6.53,15.76l-109.16,105.11c-4.14,3.61-6.52,8.82-6.57,14.31l-.9,161.2c0,1.35-1.11,2.44-2.46,2.44l-98.53-.38c-1.36,0-2.45-1.11-2.44-2.47l1.11-175.37c0-.17.02-.34.06-.51h-.02Z" fill="url(#d)"/>
    <path d="M287.92,387.95l-76.48,32.68c-.63.27-1.34-.19-1.34-.88v-69.38c0-.71.74-1.17,1.38-.86l76.48,36.7c.74.36.72,1.41-.04,1.74Z" fill="#fff"/>
    <path d="M215.92,57.07c9.87-10.37,16.57-17.41,16.57-17.41,0,0-71.66,100.29-80.68,112.92-1.08,1.31-2.13,2.58-2.13,2.58-5.21,6.3-12.81,8.6-16.98,5.16-4.17-3.45-3.33-11.34,1.87-17.64,0,0,.53-.63,1.22-1.47,2.71-2.84,53.2-55.88,80.13-84.14h0Z" fill="#221f20" stroke="#221f20" stroke-miterlimit="10"/>
    <path d="M276.58,367.47s-48.79-14.33-49.07-47.23c-.06-6.36-18.99-10.29-18.99-10.29,0,0,1.04-36.88,3.76-47.52,4.93-19.23,20.98-51.42,66.67-51.42,42.35,0,56.45,29.93,59.24,47.69,3.74,23.84,4.64,63.38-9.33,96.06" fill="none" stroke="#221f20" stroke-linecap="round" stroke-miterlimit="10" stroke-width="6.5"/>
    <path d="M172.12,247.19l-118.63-11.28c-.84-.08-1.57.54-1.65,1.37l-7.21,82.33c-.1,1.07.93,1.9,1.96,1.57l123.83-39.18c.59-.18,1.01-.72,1.05-1.34l2-31.86c.05-.81-.55-1.52-1.37-1.6h0Z" fill="url(#e)" isolation="isolate" opacity=".27"/>
    <path d="M288.16,387.82l-76.71,32.83c-.63.27-1.33-.19-1.33-.88v-69.39c0-.6.84-1.12,1.38-.86l76.69,36.81c.64.3.63,1.21-.02,1.49h0Z" fill="url(#f)" isolation="isolate" opacity=".42"/>
    <path d="M402.69,247.23l117.68-11.19c1.37-.13,2.58.88,2.7,2.24l7.13,81.41c.09,1.04-.93,1.8-1.94,1.49l-123.75-39.11c-.66-.21-1.12-.8-1.16-1.49l-1.99-31.77c-.05-.8.55-1.5,1.35-1.57h0Z" fill="#fff"/>
    <path d="M287.46,387.95l76.48,32.68c.63.27,1.34-.19,1.34-.88v-69.38c0-.71-.74-1.17-1.38-.86l-76.48,36.7c-.74.36-.72,1.41.04,1.74Z" fill="#fff"/>
    <path d="M402.73,247.19l118.63-11.28c.84-.08,1.57.54,1.65,1.37l7.21,82.33c.1,1.07-.93,1.9-1.96,1.57l-123.83-39.18c-.59-.18-1.01-.72-1.05-1.34l-2-31.86c-.05-.81.55-1.52,1.37-1.6h0Z" fill="url(#g)" isolation="isolate" opacity=".27"/>
    <path d="M287.23,387.8l76.71,32.83c.63.27,1.33-.19,1.33-.88v-69.39c0-.6-.84-1.12-1.38-.86l-76.69,36.81c-.64.3-.63,1.21.02,1.49h0Z" fill="url(#h)" isolation="isolate" opacity=".42"/>
  </g>
  <g id="i" data-name="Layer 7">
    <circle cx="62.46" cy="299.24" r="6.31" fill="#5279a3"/>
    <circle cx="510.43" cy="299.24" r="6.31" fill="#5279a3"/>
    <circle cx="287.69" cy="519.49" r="9.7" fill="#fff"/>
    <circle cx="287.69" cy="519.49" r="9.7" fill="url(#j)"/>
    <circle cx="287.69" cy="386.73" r="9.7" fill="#fff"/>
    <circle cx="287.69" cy="386.73" r="9.7" fill="url(#k)"/>
    <circle cx="287.69" cy="556.48" r="9.7" fill="#fff"/>
    <circle cx="287.69" cy="556.48" r="9.7" fill="url(#l)"/>
    <path d="M277.99,594.8c0-5.36,4.34-9.7,9.7-9.7s9.7,4.34,9.7,9.7-4.34,9.7-9.7,9.7-9.7-4.34-9.7-9.7Z" fill="#fff"/>
    <path d="M277.99,594.8c0-5.36,4.34-9.7,9.7-9.7s9.7,4.34,9.7,9.7-4.34,9.7-9.7,9.7-9.7-4.34-9.7-9.7Z" fill="url(#m)"/>
  </g>
  <rect x="563.61" y="564.34" width="3.13" height="0" fill="none"/>
  <path d="M2177.07,459.48c-2.61-2.39-3.91-6.29-3.91-11.73v-72.97h36.49v-46.26h-36.49v-44.3h-55.71v44.3h-22.15v46.26h22.15v72.32c0,22.37,5.64,38.5,16.94,48.38,11.29,9.88,27.04,14.82,47.24,14.82h28.34v-47.24h-19.87c-6.08,0-10.42-1.19-13.03-3.58ZM3225.68,326.57c-11.95,0-22.7,2.34-32.25,7-9.56,4.67-17.16,11.03-22.8,19.06v-24.11h-55.71v181.78h55.71v-98.71c0-12.16,3.15-21.61,9.45-28.34,6.3-6.73,14.77-10.1,25.41-10.1s19.11,3.37,25.41,10.1c6.3,6.73,9.45,16.18,9.45,28.34v98.71h55.38v-106.2c0-24.11-6.35-43.05-19.06-56.85-12.71-13.79-29.7-20.69-50.98-20.69ZM2538.98,510.3h55.71v-241.06h-55.71v241.06ZM3497.69,416.48c0-18.24-3.86-34.21-11.56-47.89-7.71-13.68-18.41-24.21-32.09-31.6-13.68-7.38-29.32-11.07-46.91-11.07s-33.99,3.8-47.89,11.4c-13.9,7.61-24.71,18.46-32.41,32.58-7.71,14.12-11.56,30.62-11.56,49.52s3.91,35.4,11.73,49.52c7.82,14.12,18.68,24.98,32.58,32.58,13.9,7.61,29.75,11.4,47.56,11.4,14.77,0,28.12-2.71,40.07-8.14,11.94-5.43,21.88-12.92,29.81-22.48,7.92-9.55,13.41-20.3,16.45-32.25h-59.29c-5.43,11.73-15.1,17.59-28.99,17.59-9.34,0-17.21-2.98-23.62-8.96-6.41-5.97-10.05-14.6-10.91-25.9h126.07c.65-5.64.98-11.08.98-16.29ZM3370.97,401.83c1.52-9.99,5.48-17.7,11.89-23.13,6.4-5.43,14.28-8.14,23.62-8.14s17.92,2.82,24.43,8.47c6.52,5.65,9.77,13.25,9.77,22.8h-69.71ZM2337.34,326.57c-11.95,0-22.8,2.88-32.58,8.63-9.77,5.76-17.92,13.63-24.43,23.62v-30.29h-55.71v181.78h55.71v-84.37c0-14.98,3.47-25.46,10.42-31.44,6.95-5.97,17.37-8.96,31.27-8.96h15.31v-58.96ZM2479.37,337.32c-14.33-7.6-30.41-11.4-48.21-11.4s-33.88,3.8-48.21,11.4c-14.33,7.61-25.63,18.52-33.88,32.74-8.26,14.23-12.38,30.68-12.38,49.35s4.07,35.4,12.22,49.52c8.14,14.12,19.33,24.98,33.55,32.58,14.22,7.61,30.24,11.4,48.05,11.4s33.93-3.8,48.38-11.4c14.44-7.6,25.84-18.51,34.21-32.74,8.36-14.22,12.54-30.67,12.54-49.35s-4.13-35.12-12.38-49.35c-8.26-14.22-19.55-25.13-33.88-32.74ZM2457.71,452.97c-7.49,7.82-16.56,11.73-27.2,11.73s-19.49-3.91-26.55-11.73c-7.06-7.82-10.59-19-10.59-33.55s3.58-26,10.75-33.71c7.17-7.71,16.18-11.57,27.04-11.57s19.6,3.91,26.88,11.73c7.27,7.82,10.91,19.01,10.91,33.55s-3.75,25.74-11.24,33.55ZM1845.77,337.32c-14.33-7.6-30.41-11.4-48.21-11.4s-33.88,3.8-48.21,11.4c-14.33,7.61-25.63,18.52-33.88,32.74-8.26,14.23-12.38,30.68-12.38,49.35s4.07,35.4,12.22,49.52c8.14,14.12,19.33,24.98,33.55,32.58,14.22,7.61,30.24,11.4,48.05,11.4s33.93-3.8,48.38-11.4c14.44-7.6,25.84-18.51,34.21-32.74,8.36-14.22,12.54-30.67,12.54-49.35s-4.13-35.12-12.38-49.35c-8.26-14.22-19.55-25.13-33.88-32.74ZM1824.11,452.97c-7.49,7.82-16.56,11.73-27.2,11.73s-19.49-3.91-26.55-11.73c-7.06-7.82-10.59-19-10.59-33.55s3.58-26,10.75-33.71c7.17-7.71,16.18-11.57,27.04-11.57s19.6,3.91,26.88,11.73c7.27,7.82,10.91,19.01,10.91,33.55s-3.75,25.74-11.24,33.55ZM1205.98,337c-13.68-7.38-29.32-11.07-46.91-11.07s-33.99,3.8-47.89,11.4c-13.9,7.61-24.71,18.46-32.41,32.58-7.71,14.12-11.56,30.62-11.56,49.52s3.91,35.4,11.73,49.52c7.82,14.12,18.68,24.98,32.58,32.58,13.9,7.61,29.75,11.4,47.56,11.4,14.77,0,28.12-2.71,40.07-8.14,11.94-5.43,21.88-12.92,29.81-22.48,7.92-9.55,13.41-20.3,16.45-32.25h-59.29c-5.43,11.73-15.1,17.59-28.99,17.59-9.34,0-17.21-2.98-23.62-8.96-6.41-5.97-10.05-14.6-10.91-25.9h126.07c.65-5.64.98-11.08.98-16.29,0-18.24-3.86-34.21-11.56-47.89-7.71-13.68-18.41-24.21-32.09-31.6ZM1122.91,401.83c1.52-9.99,5.48-17.7,11.89-23.13,6.4-5.43,14.28-8.14,23.62-8.14s17.92,2.82,24.43,8.47c6.52,5.65,9.77,13.25,9.77,22.8h-69.71ZM2755.29,291.07c-12.6-6.3-28.02-9.45-46.26-9.45h-90.24v228.69h55.71v-82.09h34.53c18.67,0,34.31-3.37,46.91-10.1,12.59-6.73,21.93-15.58,28.02-26.55,6.08-10.96,9.12-23.07,9.12-36.32,0-14.33-3.15-27.04-9.45-38.12-6.3-11.08-15.75-19.76-28.34-26.06ZM2728.58,376.42c-5.21,5-13.14,7.49-23.78,7.49h-30.3v-57.33h30.3c10.64,0,18.57,2.5,23.78,7.49,5.21,5,7.82,12.05,7.82,21.18s-2.61,16.18-7.82,21.17ZM1381.57,326.57c-11.95,0-22.7,2.34-32.25,7-9.56,4.67-17.16,11.03-22.8,19.06v-24.11h-55.71v181.78h55.71v-98.71c0-12.16,3.15-21.61,9.45-28.34,6.3-6.73,14.77-10.1,25.41-10.1s19.11,3.37,25.41,10.1c6.3,6.73,9.45,16.18,9.45,28.34v98.71h55.38v-106.2c0-24.11-6.35-43.05-19.06-56.85-12.71-13.79-29.7-20.69-50.98-20.69ZM2016.15,326.57c-11.95,0-22.7,2.34-32.25,7-9.56,4.67-17.16,11.03-22.8,19.06v-24.11h-55.71v181.78h55.71v-98.71c0-12.16,3.15-21.61,9.45-28.34,6.3-6.73,14.77-10.1,25.41-10.1s19.11,3.37,25.41,10.1c6.3,6.73,9.45,16.18,9.45,28.34v98.71h55.38v-106.2c0-24.11-6.35-43.05-19.06-56.85-12.71-13.79-29.7-20.69-50.98-20.69ZM1017.7,337.32c-12.17-7.6-25.74-11.4-40.72-11.4-12.82,0-24,2.61-33.55,7.82-9.56,5.21-17.05,12.05-22.48,20.52v-25.73h-55.71v268.43h55.71v-112.06c5.43,8.26,12.97,14.98,22.64,20.2,9.66,5.21,20.79,7.82,33.39,7.82,14.99,0,28.55-3.85,40.72-11.56,12.16-7.71,21.77-18.68,28.83-32.9,7.05-14.22,10.59-30.67,10.59-49.35s-3.53-35.07-10.59-49.19c-7.06-14.11-16.67-24.97-28.83-32.58ZM988.7,452.16c-7.82,8.14-17.27,12.21-28.34,12.21s-20.47-4.02-28.18-12.05c-7.71-8.03-11.56-19-11.56-32.9s3.85-24.86,11.56-32.9c7.71-8.03,17.1-12.05,28.18-12.05s20.79,3.96,28.5,11.89c7.71,7.93,11.56,18.84,11.56,32.74s-3.91,24.92-11.73,33.06ZM784.61,293.35c-17.92-9.99-37.62-14.99-59.12-14.99s-41.21,5-59.13,14.99c-17.92,9.99-32.14,23.89-42.67,41.7-10.54,17.81-15.8,37.9-15.8,60.27s5.26,42.51,15.8,60.43c10.53,17.92,24.76,31.88,42.67,41.86,17.92,9.99,37.62,14.98,59.13,14.98s41.15-4.99,58.96-14.98c17.8-9.99,31.92-23.94,42.35-41.86,10.42-17.92,15.64-38.06,15.64-60.43s-5.16-42.46-15.47-60.27c-10.32-17.8-24.43-31.71-42.35-41.7ZM769.3,443.52c-10.97,12.16-25.57,18.24-43.81,18.24s-33.18-6.03-44.14-18.08c-10.97-12.05-16.45-28.18-16.45-48.38s5.48-36.59,16.45-48.54c10.96-11.94,25.68-17.92,44.14-17.92s32.85,6.03,43.81,18.08c10.96,12.05,16.45,28.18,16.45,48.38s-5.49,36.05-16.45,48.21ZM2813.93,510.3h55.71v-241.06h-55.71v241.06ZM1587.12,329.83c10.64,0,20.14,2.5,28.5,7.49,8.36,5,14.82,12.27,19.38,21.83h61.24c-6.51-24.76-19.44-44.3-38.77-58.64-19.33-14.33-42.57-21.5-69.71-21.5-22.15,0-41.97,4.94-59.45,14.82-17.48,9.88-31.11,23.67-40.88,41.37-9.77,17.7-14.66,37.84-14.66,60.43s4.89,42.67,14.66,60.27c9.77,17.59,23.4,31.33,40.88,41.21,17.48,9.88,37.3,14.82,59.45,14.82,27.15,0,50.38-7.11,69.71-21.34,19.33-14.22,32.25-33.72,38.77-58.47h-61.24c-4.56,9.56-11.02,16.83-19.38,21.83-8.36,5-17.87,7.49-28.5,7.49-17.16,0-31.06-5.97-41.7-17.92-10.64-11.94-15.96-27.9-15.96-47.89s5.32-35.94,15.96-47.89c10.64-11.94,24.54-17.92,41.7-17.92ZM3026.97,354.26c-5.21-8.47-12.65-15.31-22.31-20.52-9.67-5.21-20.91-7.82-33.72-7.82-14.99,0-28.56,3.8-40.72,11.4-12.17,7.61-21.77,18.46-28.83,32.58-7.06,14.12-10.59,30.52-10.59,49.19s3.53,35.13,10.59,49.35c7.05,14.23,16.66,25.2,28.83,32.9,12.16,7.71,25.62,11.56,40.39,11.56,12.81,0,24.05-2.61,33.72-7.82,9.66-5.21,17.21-12.05,22.64-20.52v25.74h55.71v-181.78h-55.71v25.73ZM3015.41,452.32c-7.71,8.04-17.1,12.05-28.18,12.05s-20.47-4.07-28.18-12.21c-7.71-8.14-11.56-19.16-11.56-33.06s3.85-24.81,11.56-32.74c7.71-7.93,17.1-11.89,28.18-11.89s20.47,4.02,28.18,12.05c7.71,8.04,11.56,19.01,11.56,32.9s-3.86,24.87-11.56,32.9ZM3158.23,1329.55c-.55,0-.94.14-1.28.41-.24.18-.47.43-.65.76h-.02c-.25-.68-.85-1.16-1.64-1.16-.96,0-1.5.52-1.82,1.07h-.04l-.05-.94h-.92c.04.48.05.97.05,1.57v4.23h1.03v-3.5c0-.18.02-.36.08-.52.17-.53.65-1.06,1.31-1.06.8,0,1.21.67,1.21,1.59v3.48h1.03v-3.59c0-.19.04-.38.08-.53.18-.52.65-.96,1.25-.96.85,0,1.26.67,1.26,1.79v3.29h1.03v-3.42c0-2.01-1.14-2.52-1.91-2.52ZM3131.38,1327.39c-.38,0-.66.29-.66.66s.26.65.64.65c.42,0,.68-.29.67-.65,0-.37-.25-.66-.65-.66ZM3130.85,1335.49h1.06v-5.8h-1.06v5.8ZM3150.1,1329.68h-1.06v3.56c0,.19-.04.38-.1.54-.19.47-.68.96-1.39.96-.96,0-1.3-.74-1.3-1.85v-3.21h-1.06v3.39c0,2.04,1.09,2.54,2,2.54,1.03,0,1.64-.61,1.92-1.08h.02l.06.95h.94c-.04-.46-.05-.98-.05-1.58v-4.22ZM3136.7,1329.55c-.95,0-1.63.42-2.06,1.13h-.02l-.05-1h-.95c.02.55.05,1.15.05,1.89v6.29h1.04v-3.15h.02c.35.58,1.02.91,1.79.91,1.37,0,2.64-1.03,2.64-3.12,0-1.76-1.06-2.95-2.46-2.95ZM3136.34,1334.79c-.76,0-1.39-.5-1.58-1.24-.02-.13-.05-.28-.05-.43v-1c0-.14.04-.3.07-.43.2-.79.88-1.31,1.59-1.31,1.12,0,1.73,1,1.73,2.16,0,1.33-.65,2.24-1.76,2.24ZM3142.36,1332.12c-.76-.29-1.1-.5-1.1-.98,0-.43.35-.79.97-.79.54,0,.96.19,1.19.34l.26-.77c-.32-.19-.84-.36-1.43-.36-1.25,0-2,.77-2,1.7,0,.7.49,1.27,1.54,1.64.78.29,1.08.56,1.08,1.07s-.36.86-1.13.86c-.53,0-1.08-.22-1.39-.42l-.26.8c.41.24,1,.4,1.63.4,1.38,0,2.17-.72,2.17-1.74,0-.86-.52-1.37-1.52-1.75ZM3124.68,1329.55c-.55,0-.94.14-1.28.41-.24.18-.47.43-.65.76h-.02c-.25-.68-.85-1.16-1.64-1.16-.96,0-1.5.52-1.82,1.07h-.04l-.05-.94h-.92c.04.48.05.97.05,1.57v4.23h1.03v-3.5c0-.18.02-.36.08-.52.17-.53.65-1.06,1.31-1.06.8,0,1.21.67,1.21,1.59v3.48h1.03v-3.59c0-.19.04-.38.08-.53.18-.52.65-.96,1.25-.96.85,0,1.26.67,1.26,1.79v3.29h1.03v-3.42c0-2.01-1.14-2.52-1.91-2.52ZM3097.48,1327.4h-1.04v8.08h4.5v-.88h-3.45v-7.21ZM3104.36,1329.55c-1.61,0-2.88,1.14-2.88,3.08,0,1.83,1.21,2.99,2.78,2.99,1.4,0,2.89-.94,2.89-3.08,0-1.78-1.13-2.99-2.79-2.99ZM3104.31,1334.83c-1.03,0-1.76-.96-1.76-2.23,0-1.1.54-2.25,1.79-2.25s1.74,1.25,1.74,2.23c0,1.31-.76,2.25-1.76,2.25ZM3114.59,1329.55c-1.69,0-2.72,1.38-2.72,3.13s1.07,2.93,2.85,2.93c.92,0,1.56-.19,1.93-.36l-.18-.75c-.4.17-.85.3-1.61.3-1.06,0-1.97-.59-1.99-2.02h4.08c.01-.11.04-.28.04-.49,0-1.07-.5-2.73-2.4-2.73ZM3112.89,1332.02c.08-.73.55-1.72,1.62-1.72,1.19,0,1.48,1.04,1.46,1.72h-3.08ZM3109.45,1330.82h-.05l-.04-1.14h-.92c.04.54.05,1.13.05,1.81v3.99h1.04v-3.09c0-.18.02-.35.05-.49.14-.79.67-1.36,1.42-1.36.14,0,.25.01.36.04v-1c-.1-.02-.18-.04-.3-.04-.71,0-1.34.49-1.61,1.27ZM2500.21-581.31c.92,0,1.56-.19,1.93-.36l-.18-.76c-.4.17-.85.3-1.61.3-1.06,0-1.97-.59-1.99-2.01h4.08c.01-.11.04-.28.04-.49,0-1.07-.5-2.73-2.4-2.73-1.69,0-2.72,1.38-2.72,3.13s1.07,2.93,2.85,2.93ZM2499.99-586.61c1.19,0,1.48,1.04,1.46,1.71h-3.08c.08-.73.55-1.71,1.62-1.71ZM2503.79-581.43h1.03v-3.5c0-.18.02-.36.08-.52.17-.53.65-1.06,1.31-1.06.8,0,1.21.67,1.21,1.6v3.48h1.03v-3.59c0-.19.04-.38.08-.53.18-.52.65-.96,1.25-.96.85,0,1.26.67,1.26,1.79v3.29h1.03v-3.42c0-2.02-1.14-2.52-1.91-2.52-.55,0-.94.14-1.28.41-.24.18-.47.43-.65.76h-.02c-.25-.68-.85-1.16-1.64-1.16-.96,0-1.5.52-1.82,1.07h-.04l-.05-.94h-.92c.04.48.05.97.05,1.57v4.23ZM2516.84-588.22c.42,0,.68-.29.67-.65,0-.37-.25-.66-.65-.66s-.66.29-.66.66.26.65.64.65ZM2519.15-579.06h1.04v-3.15h.02c.35.58,1.02.91,1.79.91,1.37,0,2.64-1.03,2.64-3.12,0-1.76-1.06-2.95-2.46-2.95-.95,0-1.63.42-2.06,1.13h-.02l-.05-1h-.95c.02.55.05,1.15.05,1.9v6.28ZM2520.19-584.79c0-.14.04-.3.07-.43.2-.79.88-1.31,1.6-1.31,1.12,0,1.73,1,1.73,2.16,0,1.33-.65,2.24-1.76,2.24-.76,0-1.39-.5-1.58-1.24-.02-.13-.05-.28-.05-.43v-1ZM2516.34-581.43h1.06v-5.8h-1.06v5.8ZM2535.58-587.24h-1.06v3.56c0,.19-.04.38-.1.54-.19.47-.68.96-1.39.96-.96,0-1.29-.74-1.29-1.85v-3.21h-1.06v3.39c0,2.04,1.09,2.54,2,2.54,1.03,0,1.64-.61,1.92-1.08h.02l.06.95h.94c-.04-.46-.05-.98-.05-1.58v-4.22ZM2493.97-581.43h1.04v-3.09c0-.18.02-.35.05-.49.14-.79.67-1.36,1.42-1.36.14,0,.25.01.36.04v-1c-.1-.02-.18-.04-.3-.04-.71,0-1.34.49-1.61,1.27h-.05l-.04-1.14h-.92c.04.54.05,1.13.05,1.81v3.99ZM2540.97-584.91v3.48h1.03v-3.59c0-.19.04-.38.08-.53.18-.52.65-.96,1.25-.96.85,0,1.26.67,1.26,1.79v3.29h1.03v-3.42c0-2.02-1.14-2.52-1.91-2.52-.55,0-.94.14-1.28.41-.24.18-.47.43-.65.76h-.02c-.25-.68-.85-1.16-1.64-1.16-.96,0-1.5.52-1.82,1.07h-.04l-.05-.94h-.92c.04.48.05.97.05,1.57v4.23h1.03v-3.5c0-.18.02-.36.08-.52.17-.53.65-1.06,1.31-1.06.8,0,1.21.67,1.21,1.6ZM2527.85-584.8c-.76-.29-1.1-.5-1.1-.98,0-.43.35-.79.97-.79.54,0,.96.19,1.19.34l.26-.77c-.32-.19-.84-.36-1.43-.36-1.25,0-2,.77-2,1.7,0,.7.49,1.27,1.54,1.64.78.29,1.08.56,1.08,1.07s-.36.86-1.13.86c-.53,0-1.08-.22-1.39-.42l-.26.8c.41.24,1,.4,1.63.4,1.38,0,2.17-.72,2.17-1.74,0-.86-.52-1.37-1.52-1.75ZM2486.42-582.31h-3.45v-7.21h-1.04v8.08h4.5v-.88ZM2489.75-581.3c1.4,0,2.89-.94,2.89-3.08,0-1.78-1.13-2.99-2.79-2.99s-2.88,1.14-2.88,3.08c0,1.83,1.21,2.99,2.78,2.99ZM2489.82-586.58c1.25,0,1.74,1.25,1.74,2.23,0,1.31-.76,2.25-1.76,2.25s-1.76-.96-1.76-2.23c0-1.1.54-2.25,1.79-2.25Z" fill="url(#n)"/>
</svg>